<?xml version="1.0" encoding="iso-8859-1"?>
<!-- Generator: Adobe Illustrator 16.0.0, SVG Export Plug-In . SVG Version: 6.00 Build 0)  -->
<!DOCTYPE svg PUBLIC "-//W3C//DTD SVG 1.1//EN" "http://www.w3.org/Graphics/SVG/1.1/DTD/svg11.dtd">
<svg version="1.1" id="Capa_1" xmlns="http://www.w3.org/2000/svg" xmlns:xlink="http://www.w3.org/1999/xlink" x="0px" y="0px"
	 width="97.698px" height="97.698px" viewBox="0 0 97.698 97.698" style="enable-background:new 0 0 97.698 97.698;"
	 xml:space="preserve">
<g>
	<g>
		<path d="M67.351,19.217l-2.867,1.352l-9.97,4.698c-1.547,0.729-3.325,0.79-4.918,0.168L33.944,19.33l-3.373-1.314
			c-0.599,2.221-0.951,4.65-1.186,7.218c-2.928,0.506-4.59,2.764-3.798,7.395c0.67,3.919,2.516,7.184,5.854,7.474
			c3.278,8.479,9.446,14.051,17.377,14.051c7.576,0,14.14-5.361,17.38-14.051c3.402-0.315,5.185-3.602,5.849-7.474
			c0.791-4.631-0.871-6.889-3.799-7.395C68.054,23.121,67.778,21.102,67.351,19.217z M63.288,29.594
			c-0.533,11.168-6.552,19.05-14.47,19.05c-7.458,0-13.029-6.819-14.153-16.33c-0.272-2.306-0.282-4.302-0.102-6.055
			c3.758,1.78,8.771,2.872,14.286,2.872c5.537,0,10.552-1.108,14.314-2.9C63.296,27.26,63.346,28.375,63.288,29.594z"/>
		<path d="M64.897,48.707c-0.004-0.004-0.01-0.007-0.014-0.012L48.847,88.289L32.815,48.695c-1.428,0.864-2.876,1.951-4.291,3.288
			l18.305,45.675c0.713,0.023,1.431,0.04,2.158,0.04c0.637,0,1.262-0.012,1.88-0.029l18.311-45.689
			C67.772,50.653,66.33,49.572,64.897,48.707z"/>
		<path d="M81.198,84.229c-0.757-14.678-4.891-24.141-9.897-30.013L53.958,97.486c6.96-0.616,12.383-2.588,15.386-5.893
			c0,0,6.219-0.315,6.334-0.323C78.917,91.056,81.388,87.902,81.198,84.229z"/>
		<path d="M16.5,84.226c-0.191,3.677,2.28,6.83,5.517,7.045c0.116,0.008,6.337,0.323,6.337,0.323
			c3.078,3.495,8.754,5.289,15.379,5.878L26.402,54.225C21.426,60.068,17.26,69.51,16.5,84.226z"/>
		<path d="M23.604,25.602c1.219,0,2.207,0.012,2.207-1.207c0-0.85-0.481-3.612-1.185-5.21c0.702-0.37,1.185-1.098,1.185-1.945
			c0-0.643-0.28-1.217-0.719-1.62V11.46h22.754c0.535,0,0.968,0.434,0.968,0.968v0.032c0,0.553-0.448,1-1,1h-18.65
			c-0.19,0-0.354,0.136-0.39,0.321c-0.036,0.188,0.066,0.374,0.243,0.444l20.979,8.355c1.271,0.496,2.688,0.447,3.923-0.135
			l20.207-9.521c0.649-0.308,1.053-0.972,1.025-1.688c-0.028-0.717-0.48-1.349-1.15-1.604L49.608,0.326
			c-1.201-0.458-2.533-0.433-3.715,0.069L26.927,8.46h-3.333c-0.829,0-1.5,0.672-1.5,1.5v5.68c-0.426,0.401-0.695,0.969-0.695,1.601
			c0,0.849,0.483,1.575,1.185,1.945c-0.704,1.598-1.185,4.36-1.185,5.21C21.397,25.613,22.387,25.602,23.604,25.602z"/>
	</g>
</g>
<g>
</g>
<g>
</g>
<g>
</g>
<g>
</g>
<g>
</g>
<g>
</g>
<g>
</g>
<g>
</g>
<g>
</g>
<g>
</g>
<g>
</g>
<g>
</g>
<g>
</g>
<g>
</g>
<g>
</g>
</svg>
